<svg width="27" height="27" viewBox="0 0 27 27" fill="none" xmlns="http://www.w3.org/2000/svg">
<path fill-rule="evenodd" clip-rule="evenodd" d="M12.7045 2.5795C13.1438 2.14017 13.8562 2.14017 14.2955 2.5795L17.6705 5.9545C18.1098 6.39384 18.1098 7.10616 17.6705 7.5455C17.2312 7.98484 16.5188 7.98484 16.0795 7.5455L14.625 6.09099V16.875C14.625 17.4963 14.1213 18 13.5 18C12.8787 18 12.375 17.4963 12.375 16.875V6.09099L10.9205 7.5455C10.4812 7.98484 9.76885 7.98484 9.3295 7.5455C8.89017 7.10616 8.89017 6.39384 9.3295 5.9545L12.7045 2.5795ZM4.5 12.375C4.5 11.1324 5.50736 10.125 6.75 10.125H9C9.62132 10.125 10.125 10.6287 10.125 11.25C10.125 11.8713 9.62132 12.375 9 12.375H6.75V22.5H20.25V12.375H18C17.3787 12.375 16.875 11.8713 16.875 11.25C16.875 10.6287 17.3787 10.125 18 10.125H20.25C21.4926 10.125 22.5 11.1324 22.5 12.375V22.5C22.5 23.7426 21.4926 24.75 20.25 24.75H6.75C5.50736 24.75 4.5 23.7426 4.5 22.5V12.375Z" fill="white"/>
</svg>
